<svg xmlns="http://www.w3.org/2000/svg" width="56.522" height="56.522" viewBox="0 0 56.522 56.522">
  <path id="user" d="M56.522,28.261A28.261,28.261,0,1,0,9.173,49.079l-.027.024.917.773c.06.05.124.091.184.141.487.4.992.787,1.506,1.158.166.12.333.24.5.358q.823.567,1.687,1.077c.125.074.252.146.378.218.63.359,1.273.7,1.932,1.007l.146.066a28.006,28.006,0,0,0,6.835,2.163l.189.034c.744.128,1.5.231,2.258.3.092.008.185.013.278.022.758.063,1.525.1,2.3.1s1.529-.04,2.283-.1c.1-.008.191-.013.287-.022q1.133-.1,2.238-.295l.192-.035A28,28,0,0,0,40,53.958c.078-.036.157-.07.235-.107q.951-.447,1.861-.962.227-.128.451-.26c.553-.326,1.1-.666,1.625-1.028.19-.129.376-.266.564-.4.451-.325.894-.66,1.325-1.01.1-.077.2-.144.292-.223l.94-.785-.028-.024A28.188,28.188,0,0,0,56.522,28.261Zm-54.466,0A26.205,26.205,0,1,1,45.64,47.851a7.7,7.7,0,0,0-.918-.552l-8.7-4.35A2.278,2.278,0,0,1,34.755,40.9V37.862c.2-.249.414-.53.634-.84a20.942,20.942,0,0,0,2.688-5.265,3.73,3.73,0,0,0,2.143-3.38V24.735a3.739,3.739,0,0,0-.912-2.435V17.5a8.289,8.289,0,0,0-1.935-6.026c-1.894-2.162-4.96-3.257-9.112-3.257s-7.218,1.094-9.112,3.256A8.289,8.289,0,0,0,17.213,17.5v4.8a3.744,3.744,0,0,0-.912,2.435v3.643a3.738,3.738,0,0,0,1.377,2.9,19.31,19.31,0,0,0,3.179,6.566v2.974a2.292,2.292,0,0,1-1.194,2.012L11.538,47.26a7.427,7.427,0,0,0-.773.489A26.143,26.143,0,0,1,2.055,28.261Zm41.578,21.2q-.54.392-1.1.755c-.171.111-.34.222-.514.33-.485.3-.978.586-1.482.853-.111.059-.223.114-.335.172a26.186,26.186,0,0,1-3.584,1.517l-.131.044q-.967.321-1.957.567h-.006c-.666.164-1.34.3-2.018.413l-.055.01c-.638.1-1.281.179-1.927.235-.114.01-.228.017-.343.026-.638.048-1.279.079-1.924.079s-1.3-.032-1.947-.08c-.112-.008-.224-.015-.335-.026-.652-.058-1.3-.135-1.942-.239l-.086-.015a26.107,26.107,0,0,1-4-1l-.121-.041q-.97-.33-1.914-.733l-.013-.006c-.594-.256-1.177-.54-1.752-.839-.075-.039-.151-.076-.225-.116-.525-.281-1.039-.584-1.546-.9q-.225-.142-.447-.287c-.467-.305-.927-.623-1.375-.959-.046-.035-.09-.072-.137-.107l.1-.055,8.126-4.432a4.346,4.346,0,0,0,2.266-3.817v-3.7l-.236-.286a17.159,17.159,0,0,1-3.084-6.388l-.094-.407-.35-.227a1.7,1.7,0,0,1-.79-1.431V24.733a1.678,1.678,0,0,1,.572-1.257l.339-.306V17.446l-.009-.135a6.19,6.19,0,0,1,1.435-4.481c1.486-1.694,4.033-2.554,7.567-2.554s6.059.853,7.549,2.534a6.293,6.293,0,0,1,1.452,4.5l-.009,5.859.339.306a1.68,1.68,0,0,1,.572,1.257v3.643A1.716,1.716,0,0,1,36.951,30l-.511.157-.164.509a19.012,19.012,0,0,1-2.565,5.171c-.269.38-.531.717-.756.975L32.7,37.1v3.8a4.321,4.321,0,0,0,2.4,3.887l8.7,4.35c.055.028.11.057.164.085C43.858,49.306,43.745,49.383,43.634,49.464Z" fill="#282c34"/>
</svg>
