<svg id="add" xmlns="http://www.w3.org/2000/svg" width="56.915" height="56.915" viewBox="0 0 56.915 56.915">
  <path id="Path_6" data-name="Path 6" d="M28.457,0A28.457,28.457,0,1,0,56.915,28.457,28.49,28.49,0,0,0,28.457,0Zm0,54.543A26.086,26.086,0,1,1,54.543,28.457,26.115,26.115,0,0,1,28.457,54.543Z" fill="#282c34"/>
  <path id="Path_7" data-name="Path 7" d="M138.681,122.08H124.452V107.852a1.186,1.186,0,0,0-2.372,0V122.08H107.852a1.186,1.186,0,1,0,0,2.372H122.08v14.229a1.186,1.186,0,1,0,2.372,0V124.452h14.229a1.186,1.186,0,1,0,0-2.372Z" transform="translate(-94.809 -94.809)" fill="#282c34"/>
</svg>
